<svg width="14" height="14" viewBox="0 0 14 14" fill="none" xmlns="http://www.w3.org/2000/svg">
<path d="M8.23675 7.0146L13.4935 1.75782C13.8355 1.41588 13.8355 0.862999 13.4935 0.521102C13.1515 0.179164 12.5986 0.179164 12.2567 0.521102L6.99991 5.77785L1.74329 0.521102C1.40119 0.179164 0.848514 0.179164 0.506576 0.521102C0.164475 0.86304 0.164475 1.41588 0.506576 1.75782L5.76315 7.0146L0.506617 12.2713C0.164516 12.6133 0.164516 13.1662 0.506617 13.5081C0.587727 13.5894 0.684109 13.6539 0.790227 13.6979C0.896345 13.7419 1.01011 13.7644 1.12498 13.7643C1.34883 13.7643 1.57278 13.6786 1.74333 13.5081L6.99991 8.25132L12.2567 13.5081C12.3379 13.5894 12.4342 13.6539 12.5404 13.6979C12.6465 13.7418 12.7602 13.7644 12.8751 13.7643C13.099 13.7643 13.3229 13.6786 13.4935 13.5081C13.8355 13.1661 13.8355 12.6133 13.4935 12.2713L8.23675 7.0146Z" fill="#999999"/>
</svg>
