<svg width="34" height="24" viewBox="0 0 34 24" fill="none" xmlns="http://www.w3.org/2000/svg">
<rect x="0.5" y="0.5" width="33" height="23" rx="3.5" fill="white"/>
<rect x="0.5" y="0.5" width="33" height="23" rx="3.5" stroke="#F5F5F5"/>
<path d="M26.7114 14.1299H26.729L28.146 10.5713H29.1431L26.0796 17.7051H25.1343L26.2729 15.21L24.2632 10.5713H25.2593L26.7114 14.1299ZM21.9175 10.4092C22.5949 10.4092 23.1301 10.5941 23.5229 10.958C23.9158 11.3219 24.1089 11.8305 24.1089 12.4717V15.5273H23.2329V14.8398H23.1929C22.8114 15.4059 22.3101 15.6894 21.6782 15.6895C21.143 15.6895 20.6873 15.5275 20.3286 15.2041C19.9757 14.9038 19.7763 14.459 19.7876 13.9912C19.7876 13.4771 19.9814 13.0728 20.3628 12.7666C20.7442 12.4605 21.2564 12.3096 21.894 12.3096C22.4406 12.3096 22.8848 12.414 23.2378 12.6104V12.3965C23.2378 12.0789 23.1018 11.7783 22.8628 11.5703C22.618 11.3508 22.3045 11.2296 21.98 11.2295C21.4677 11.2295 21.0632 11.4489 20.7671 11.8877L19.9585 11.374C20.3912 10.7328 21.0463 10.4092 21.9175 10.4092ZM17.5728 8.2832C18.1592 8.27172 18.7284 8.49721 19.144 8.91309C19.9754 9.69874 20.0267 11.0219 19.2466 11.8711L19.144 11.9746C18.717 12.3847 18.1933 12.5927 17.5728 12.5928H16.0581V15.5273H15.1411V8.2832H17.5728ZM22.0366 13.0605C21.6667 13.0606 21.3535 13.1531 21.103 13.332C20.8583 13.511 20.733 13.7365 20.7329 14.0078C20.7329 14.2504 20.8467 14.4766 21.0347 14.6152C21.2396 14.7769 21.4904 14.8632 21.7466 14.8574C22.1338 14.8574 22.5035 14.7011 22.7769 14.4238C23.0787 14.135 23.2329 13.7942 23.2329 13.4014C22.9482 13.1704 22.5491 13.0548 22.0366 13.0605ZM16.0581 11.7031H17.5952C17.9369 11.7147 18.268 11.5765 18.5015 11.3281C18.9798 10.8255 18.9676 10.0165 18.4722 9.53125C18.2387 9.30028 17.9254 9.17285 17.5952 9.17285H16.0581V11.7031Z" fill="#3C4043"/>
<path d="M12.8926 11.9577C12.8926 11.6746 12.8698 11.3915 12.8243 11.1143H8.95801V12.7145H11.173C11.0819 13.2286 10.7858 13.6907 10.3531 13.9796V15.0194H11.6741C12.4485 14.2973 12.8926 13.2286 12.8926 11.9577Z" fill="#4285F4"/>
<path d="M8.95817 16.0252C10.0628 16.0252 10.9967 15.6555 11.6743 15.0201L10.3532 13.9802C9.98311 14.2344 9.5105 14.3788 8.95817 14.3788C7.88768 14.3788 6.98232 13.6452 6.65776 12.6631H5.29688V13.7376C5.99155 15.1414 7.40938 16.0252 8.95817 16.0252Z" fill="#34A853"/>
<path d="M6.65797 12.6631C6.48712 12.149 6.48712 11.5886 6.65797 11.0687V10H5.29687C4.71029 11.1727 4.71029 12.5592 5.29687 13.7319L6.65797 12.6631Z" fill="#FBBC04"/>
<path d="M8.95817 9.35271C9.54466 9.34116 10.1084 9.56646 10.5297 9.97662L11.7027 8.78658C10.9568 8.0818 9.97741 7.69475 8.95817 7.70631C7.40938 7.70631 5.99155 8.59594 5.29688 9.99972L6.65776 11.0742C6.98232 10.0864 7.88768 9.35271 8.95817 9.35271Z" fill="#EA4335"/>
</svg>
