<svg width="26" height="11" viewBox="0 0 26 11" fill="none" xmlns="http://www.w3.org/2000/svg">
<path d="M22.7114 7.12988H22.729L24.146 3.57129H25.1431L22.0796 10.7051H21.1343L22.2729 8.20996L20.2632 3.57129H21.2593L22.7114 7.12988ZM17.9175 3.40918C18.5949 3.40925 19.1301 3.59413 19.5229 3.95801C19.9158 4.32195 20.1089 4.83048 20.1089 5.47168V8.52734H19.2329V7.83984H19.1929C18.8114 8.4059 18.3101 8.68937 17.6782 8.68945C17.143 8.68945 16.6873 8.52753 16.3286 8.2041C15.9757 7.90378 15.7763 7.45901 15.7876 6.99121C15.7876 6.47711 15.9814 6.07277 16.3628 5.7666C16.7442 5.46047 17.2564 5.30961 17.894 5.30957C18.4406 5.30957 18.8848 5.41401 19.2378 5.61035V5.39648C19.2378 5.07887 19.1018 4.77827 18.8628 4.57031C18.618 4.35085 18.3045 4.22955 17.98 4.22949C17.4677 4.22949 17.0632 4.44889 16.7671 4.8877L15.9585 4.37402C16.3912 3.73281 17.0463 3.40918 17.9175 3.40918ZM13.5728 1.2832C14.1592 1.27172 14.7284 1.49721 15.144 1.91309C15.9754 2.69874 16.0267 4.0219 15.2466 4.87109L15.144 4.97461C14.717 5.38471 14.1933 5.59271 13.5728 5.59277H12.0581V8.52734H11.1411V1.2832H13.5728ZM18.0366 6.06055C17.6667 6.06061 17.3535 6.15308 17.103 6.33203C16.8583 6.51102 16.733 6.73648 16.7329 7.00781C16.7329 7.25044 16.8467 7.47659 17.0347 7.61523C17.2396 7.77688 17.4904 7.8632 17.7466 7.85742C18.1338 7.85741 18.5035 7.70106 18.7769 7.42383C19.0787 7.13498 19.2329 6.79419 19.2329 6.40137C18.9482 6.17038 18.5491 6.05477 18.0366 6.06055ZM12.0581 4.70312H13.5952C13.9369 4.71468 14.268 4.5765 14.5015 4.32812C14.9798 3.82554 14.9676 3.01651 14.4722 2.53125C14.2387 2.30028 13.9254 2.17285 13.5952 2.17285H12.0581V4.70312Z" fill="#3C4043"/>
<path d="M8.89262 4.95768C8.89262 4.67461 8.86984 4.39155 8.82429 4.11426H4.95801V5.71445H7.17301C7.0819 6.22859 6.78581 6.69074 6.35306 6.97959V8.01942H7.67409C8.44848 7.29731 8.89262 6.22859 8.89262 4.95768Z" fill="#4285F4"/>
<path d="M4.95817 9.02523C6.06282 9.02523 6.99665 8.65551 7.67425 8.02005L6.35322 6.98021C5.98311 7.2344 5.5105 7.37882 4.95817 7.37882C3.88768 7.37882 2.98232 6.64515 2.65776 5.66309H1.29688V6.73758C1.99155 8.14137 3.40938 9.02523 4.95817 9.02523Z" fill="#34A853"/>
<path d="M2.65797 5.66314C2.48712 5.149 2.48712 4.58864 2.65797 4.06872V3H1.29687C0.710288 4.1727 0.710288 5.55915 1.29687 6.73186L2.65797 5.66314Z" fill="#FBBC04"/>
<path d="M4.95817 2.35271C5.54466 2.34116 6.10838 2.56646 6.52974 2.97662L7.70272 1.78658C6.9568 1.0818 5.97741 0.694752 4.95817 0.706306C3.40938 0.706306 1.99155 1.59594 1.29688 2.99972L2.65776 4.07422C2.98232 3.08638 3.88768 2.35271 4.95817 2.35271Z" fill="#EA4335"/>
</svg>
