<svg width="24" height="24" viewBox="0 0 24 24" fill="none" xmlns="http://www.w3.org/2000/svg">
<g clip-path="url(#clip0_223_5177)">
<path d="M19.5996 1.50098C19.6727 1.50099 19.7452 1.51691 19.8115 1.54785C19.8777 1.57877 19.9365 1.62373 19.9834 1.67969H19.9844L23.9844 6.48047C24.045 6.55334 24.0835 6.64232 24.0957 6.73633C24.1078 6.83037 24.0929 6.92581 24.0527 7.01172C24.0124 7.09768 23.9483 7.17071 23.8682 7.22168C23.788 7.27265 23.6946 7.29972 23.5996 7.2998H0.400391C0.305381 7.29972 0.212015 7.27265 0.131836 7.22168C0.0517141 7.17071 -0.0123618 7.09767 -0.0527344 7.01172C-0.0929531 6.92584 -0.10784 6.83038 -0.0957031 6.73633C-0.0865195 6.66555 -0.0627086 6.59731 -0.0253906 6.53711L0.0166016 6.47949L4.0166 1.67969C4.06348 1.62364 4.12228 1.57879 4.18848 1.54785C4.25483 1.51686 4.32716 1.5009 4.40039 1.50098H19.5996ZM1.46777 6.2998H22.5322L19.3662 2.5H4.63379L1.46777 6.2998Z" fill="#FF7A00" stroke="#FF7A00" stroke-width="0.2"/>
<path d="M12.0005 1.50049C12.0993 1.50047 12.1957 1.52967 12.2778 1.58447C12.3599 1.63929 12.4245 1.71696 12.4624 1.80811V1.80908C12.5001 1.90026 12.5099 2.00038 12.4907 2.09717C12.4714 2.19418 12.424 2.28408 12.354 2.354L7.5542 7.15381C7.50779 7.20017 7.45269 7.2371 7.39209 7.26221C7.33151 7.28727 7.26624 7.29929 7.20068 7.29932V7.30029C7.17933 7.30029 7.15753 7.29877 7.13721 7.29639H7.13623C7.06042 7.2865 6.98801 7.25859 6.92432 7.21631C6.86073 7.17409 6.80757 7.11814 6.76904 7.05225L3.96826 2.25244C3.87778 2.09754 3.87802 1.90684 3.96729 1.75146C4.05667 1.59611 4.22182 1.50049 4.40088 1.50049H12.0005ZM7.3042 5.98779L10.7925 2.50049H5.271L7.3042 5.98779Z" fill="#FF7A00" stroke="#FF7A00" stroke-width="0.2"/>
<path d="M23.5996 6.30029C23.6928 6.30033 23.7842 6.3263 23.8633 6.37549C23.9424 6.4247 24.0066 6.49507 24.0479 6.57861C24.089 6.6621 24.1057 6.75551 24.0967 6.84814C24.0877 6.94088 24.0526 7.02896 23.9961 7.10303L12.3965 22.3013L12.3975 22.3022C12.3036 22.4266 12.156 22.5005 12 22.5005C11.844 22.5005 11.697 22.4271 11.6025 22.3032L0.00292969 7.10303C-0.0535881 7.02898 -0.0886535 6.94086 -0.0976562 6.84814C-0.106657 6.7554 -0.0890985 6.66217 -0.0478516 6.57861L-0.0136719 6.51807C0.0253609 6.4608 0.0764776 6.41238 0.135742 6.37549C0.214823 6.32633 0.306302 6.30041 0.399414 6.30029H23.5996ZM12 21.1753L22.5898 7.30029H1.41016L12 21.1753Z" fill="#FF7A00" stroke="#FF7A00" stroke-width="0.2"/>
<path d="M7.19971 6.29932C7.30591 6.29932 7.4099 6.33329 7.49561 6.396C7.58134 6.45882 7.6452 6.54759 7.67725 6.64893L12.4771 21.8491L12.4956 21.9341C12.507 22.0206 12.4962 22.1093 12.4624 22.1909C12.4286 22.2724 12.3735 22.3429 12.3042 22.396L12.231 22.4429C12.1956 22.4616 12.1582 22.4763 12.1196 22.4858L12.0005 22.4995C11.9236 22.4995 11.8477 22.4819 11.7788 22.4478C11.71 22.4136 11.6496 22.3643 11.603 22.3032L0.00341797 7.10303C-0.053084 7.02903 -0.0881215 6.9408 -0.097168 6.84814C-0.106167 6.75546 -0.0885451 6.66213 -0.0473633 6.57861V6.57764C-0.00605024 6.49432 0.057247 6.42361 0.13623 6.37451C0.215304 6.32537 0.306805 6.29943 0.399902 6.29932H7.19971ZM10.6606 19.4214L6.83447 7.30029H1.41162L10.6606 19.4214ZM19.6001 1.50049C19.6878 1.50046 19.7741 1.52302 19.8501 1.56689C19.9262 1.61099 19.9899 1.67512 20.0337 1.75146C20.0773 1.82757 20.1003 1.91377 20.1001 2.00146C20.0998 2.08928 20.0758 2.17553 20.0317 2.25146V2.25244L17.2319 7.05225C17.1935 7.11815 17.1402 7.17407 17.0767 7.21631C17.013 7.25857 16.9405 7.28652 16.8647 7.29639H16.8628C16.8429 7.29865 16.822 7.30028 16.8003 7.30029C16.7347 7.30038 16.6695 7.28729 16.6089 7.26221C16.5483 7.23712 16.4931 7.20016 16.4468 7.15381L11.647 2.354C11.577 2.28411 11.5286 2.19418 11.5093 2.09717C11.4901 2.00049 11.5 1.90018 11.5376 1.80908C11.5754 1.71775 11.64 1.6394 11.7222 1.58447C11.8044 1.52954 11.9016 1.50042 12.0005 1.50049H19.6001ZM16.6948 5.98779L18.729 2.50049H13.2075L16.6948 5.98779Z" fill="#FF7A00" stroke="#FF7A00" stroke-width="0.2"/>
<path d="M23.6006 6.30078C23.6938 6.3008 23.7851 6.32677 23.8643 6.37598C23.9434 6.4252 24.0076 6.49553 24.0488 6.5791C24.09 6.6626 24.1067 6.75598 24.0977 6.84863C24.0886 6.94138 24.0536 7.02945 23.9971 7.10352L12.3975 22.3037C12.3506 22.3645 12.2905 22.4143 12.2217 22.4482C12.1528 22.4822 12.0767 22.4999 12 22.5C11.92 22.5 11.8415 22.4802 11.7705 22.4434C11.6662 22.3891 11.5841 22.3 11.5391 22.1914C11.494 22.0828 11.4882 21.9618 11.5234 21.8496L16.3232 6.64941C16.3552 6.54821 16.4193 6.46024 16.5049 6.39746C16.5907 6.3346 16.6944 6.30071 16.8008 6.30078H23.6006ZM13.3379 19.4219L22.5898 7.2998H17.167L13.3379 19.4219Z" fill="#FF7A00" stroke="#FF7A00" stroke-width="0.2"/>
</g>
<defs>
<clipPath id="clip0_223_5177">
<rect width="24" height="24" fill="white"/>
</clipPath>
</defs>
</svg>
