<svg width="90" height="32" viewBox="0 0 90 32" fill="none" xmlns="http://www.w3.org/2000/svg">
<path d="M-0.157654 0.244873H7.48576C9.61948 0.244873 11.3462 0.795261 12.6641 1.89604C13.9858 2.99681 14.6485 4.59952 14.6485 6.70224C14.6485 8.80107 13.978 10.4464 12.6408 11.6402C11.3016 12.834 9.58266 13.4309 7.48576 13.4309H4.61754V21.2061H-0.157654V0.244873ZM4.61754 9.62472H5.95863C7.02839 9.62472 7.90436 9.41154 8.58653 8.98131C9.27258 8.5472 9.61754 7.8379 9.61754 6.84952C9.61754 5.8534 9.27258 5.14022 8.58653 4.70999C7.90436 4.27588 7.02839 4.05883 5.95863 4.05883H4.61754V9.62472Z" fill="#232323"/>
<path d="M15.2551 19.5936C14.0342 18.2661 13.4257 16.6382 13.4257 14.7099C13.4257 12.7777 14.0342 11.1421 15.2551 9.80292C16.4741 8.46571 18.0245 7.79517 19.9063 7.79517C21.6311 7.79517 23.0555 8.33586 24.1776 9.41532V8.17501H28.6737V21.206H24.2241V19.7332H24.1776C23.0555 20.9696 21.6311 21.5859 19.9063 21.5859C18.0245 21.5859 16.4741 20.9231 15.2551 19.5936ZM19.0768 12.4928C18.4916 13.0665 18.2009 13.8029 18.2009 14.7021C18.2009 15.6014 18.4799 16.3359 19.0381 16.9037C19.6001 17.4676 20.3404 17.7487 21.2551 17.7487C22.133 17.7487 22.8559 17.4618 23.4257 16.8882C23.9935 16.3107 24.2784 15.582 24.2784 14.7021C24.2784 13.8029 23.9857 13.0665 23.4024 12.4928C22.8171 11.9192 22.102 11.6324 21.2551 11.6324C20.3908 11.6324 19.666 11.9192 19.0768 12.4928Z" fill="#FF7A00"/>
<path d="M34.9954 7.79517C35.7435 7.79517 36.4799 7.88044 37.2047 8.05098C37.9334 8.21765 38.476 8.38431 38.8326 8.55486L39.3675 8.81067L37.8946 11.7564C36.8752 11.2138 35.9101 10.9425 34.9954 10.9425C34.4876 10.9425 34.1291 11.0006 33.9179 11.113C33.7047 11.2215 33.6 11.4289 33.6 11.7332C33.6 11.801 33.6078 11.8688 33.6233 11.9347C33.6427 12.0025 33.6776 12.0665 33.7241 12.1285C33.7745 12.1866 33.821 12.2351 33.8636 12.2758C33.9101 12.3184 33.9818 12.3649 34.0807 12.4153C34.1834 12.4676 34.2628 12.5064 34.321 12.5316C34.383 12.5587 34.4799 12.5975 34.6156 12.6479C34.7493 12.6944 34.85 12.7312 34.9179 12.7564C34.9896 12.7835 35.1059 12.8223 35.2667 12.8727C35.4256 12.925 35.5477 12.958 35.6311 12.9735C36.1582 13.1285 36.6156 13.299 37.0031 13.4851C37.3946 13.6711 37.8055 13.925 38.2357 14.2448C38.6698 14.5665 39.0051 14.9715 39.2435 15.4618C39.4799 15.9541 39.6 16.5142 39.6 17.144C39.6 20.1052 37.54 21.5859 33.4218 21.5859C32.4915 21.5859 31.6078 21.4425 30.7706 21.1595C29.9334 20.8707 29.3249 20.582 28.9489 20.2913L28.3907 19.8339L30.2202 16.7642C30.3597 16.8785 30.538 17.018 30.7551 17.1828C30.976 17.3436 31.3752 17.5626 31.9489 17.8417C32.5264 18.1207 33.0264 18.2603 33.445 18.2603C34.3791 18.2603 34.8481 17.9483 34.8481 17.3223C34.8481 17.0335 34.728 16.8087 34.4915 16.6479C34.2531 16.489 33.85 16.3068 33.2822 16.1052C32.7125 15.8998 32.2687 15.7099 31.9489 15.5394C31.1369 15.1169 30.4935 14.6382 30.0187 14.1052C29.5419 13.5742 29.3055 12.8649 29.3055 11.9812C29.3055 10.6634 29.8171 9.63819 30.8404 8.90369C31.8675 8.16532 33.2531 7.79517 34.9954 7.79517Z" fill="#232323"/>
<path d="M45.1044 7.79517C45.8525 7.79517 46.5889 7.88044 47.3137 8.05098C48.0424 8.21765 48.585 8.38431 48.9416 8.55486L49.4765 8.81067L48.0036 11.7564C46.9843 11.2138 46.0191 10.9425 45.1044 10.9425C44.5967 10.9425 44.2381 11.0006 44.0269 11.113C43.8137 11.2215 43.7091 11.4289 43.7091 11.7332C43.7091 11.801 43.7168 11.8688 43.7323 11.9347C43.7517 12.0025 43.7866 12.0665 43.8331 12.1285C43.8835 12.1866 43.93 12.2351 43.9726 12.2758C44.0191 12.3184 44.0908 12.3649 44.1897 12.4153C44.2924 12.4676 44.3718 12.5064 44.43 12.5316C44.492 12.5587 44.5889 12.5975 44.7246 12.6479C44.8583 12.6944 44.9591 12.7312 45.0269 12.7564C45.0986 12.7835 45.2149 12.8223 45.3757 12.8727C45.5346 12.925 45.6567 12.958 45.7401 12.9735C46.2672 13.1285 46.7246 13.299 47.1122 13.4851C47.5036 13.6711 47.9145 13.925 48.3447 14.2448C48.7788 14.5665 49.1141 14.9715 49.3525 15.4618C49.5889 15.9541 49.7091 16.5142 49.7091 17.144C49.7091 20.1052 47.649 21.5859 43.5308 21.5859C42.6005 21.5859 41.7168 21.4425 40.8796 21.1595C40.0424 20.8707 39.4339 20.582 39.0579 20.2913L38.4998 19.8339L40.3292 16.7642C40.4687 16.8785 40.647 17.018 40.8641 17.1828C41.085 17.3436 41.4843 17.5626 42.0579 17.8417C42.6354 18.1207 43.1354 18.2603 43.554 18.2603C44.4881 18.2603 44.9571 17.9483 44.9571 17.3223C44.9571 17.0335 44.837 16.8087 44.6005 16.6479C44.3622 16.489 43.9591 16.3068 43.3912 16.1052C42.8215 15.8998 42.3777 15.7099 42.0579 15.5394C41.2459 15.1169 40.6025 14.6382 40.1277 14.1052C39.6509 13.5742 39.4145 12.8649 39.4145 11.9812C39.4145 10.6634 39.9261 9.63819 40.9494 8.90369C41.9765 8.16532 43.3622 7.79517 45.1044 7.79517Z" fill="#232323"/>
<path d="M49.9808 0.911547C50.508 0.384416 51.1359 0.12085 51.8645 0.12085C52.5932 0.12085 53.2173 0.384416 53.7405 0.911547C54.2676 1.4348 54.5312 2.05883 54.5312 2.78752C54.5312 3.5162 54.2676 4.14411 53.7405 4.67124C53.2173 5.19449 52.5932 5.45418 51.8645 5.45418C51.1359 5.45418 50.508 5.19449 49.9808 4.67124C49.4576 4.14411 49.1979 3.5162 49.1979 2.78752C49.1979 2.05883 49.4576 1.4348 49.9808 0.911547ZM49.5545 8.17511V21.2061H54.0506V8.17511H49.5545Z" fill="#232323"/>
<path d="M56.062 19.6556C54.6143 18.3688 53.8915 16.7176 53.8915 14.7021C53.8915 12.6866 54.6454 11.0335 56.155 9.7409C57.6628 8.44439 59.5271 7.79517 61.7442 7.79517C63.9302 7.79517 65.7713 8.44633 67.2713 9.74865C68.7694 11.051 69.5194 12.7021 69.5194 14.7021C69.5194 16.7021 68.7849 18.3514 67.3178 19.6479C65.8547 20.9405 63.9961 21.5859 61.7442 21.5859C59.407 21.5859 57.5136 20.9425 56.062 19.6556ZM59.5426 12.4928C58.9574 13.0665 58.6667 13.8029 58.6667 14.7021C58.6667 15.6014 58.9457 16.3359 59.5039 16.9037C60.0659 17.4676 60.8062 17.7487 61.7209 17.7487C62.5988 17.7487 63.3217 17.4618 63.8915 16.8882C64.4593 16.3107 64.7442 15.582 64.7442 14.7021C64.7442 13.8029 64.4516 13.0665 63.8682 12.4928C63.283 11.9192 62.5678 11.6324 61.7209 11.6324C60.8566 11.6324 60.1318 11.9192 59.5426 12.4928Z" fill="#232323"/>
<path d="M69.239 21.206V8.17501H73.7351V9.5471H73.7816C74.9483 8.38044 76.1944 7.79517 77.5181 7.79517C78.1576 7.79517 78.7972 7.88044 79.4328 8.05098C80.0685 8.21765 80.677 8.47734 81.2623 8.83393C81.8456 9.19051 82.3185 9.69439 82.6809 10.3456C83.0472 10.9967 83.2313 11.7545 83.2313 12.6169V21.206H78.7351V13.8417C78.7351 13.1653 78.5181 12.5742 78.084 12.0665C77.6537 11.5549 77.0937 11.299 76.4018 11.299C75.7235 11.299 75.1092 11.5626 74.5568 12.0897C74.0084 12.613 73.7351 13.1963 73.7351 13.8417V21.206H69.239Z" fill="#232323"/>
<path d="M86.5361 15.772C87.3462 15.772 88.0361 16.0569 88.6059 16.6247C89.1737 17.1886 89.4586 17.8786 89.4586 18.6945C89.4586 19.491 89.1737 20.1731 88.6059 20.741C88.0361 21.303 87.3462 21.5859 86.5361 21.5859C85.7396 21.5859 85.0574 21.303 84.4896 20.741C83.9257 20.1731 83.6447 19.491 83.6447 18.6945C83.6447 17.8786 83.9257 17.1886 84.4896 16.6247C85.0574 16.0569 85.7396 15.772 86.5361 15.772Z" fill="#FF7A00"/>
<path d="M29.9852 25.4297C30.305 25.4297 30.6015 25.5188 30.8767 25.6933C31.1499 25.8638 31.367 26.1002 31.5278 26.3987C31.6868 26.6933 31.7681 27.0188 31.7681 27.3754C31.7681 27.732 31.6868 28.0634 31.5278 28.3677C31.367 28.6681 31.1499 28.9064 30.8767 29.0809C30.6015 29.2572 30.305 29.3444 29.9852 29.3444H28.2798V31.3522C28.2798 31.4723 28.2371 31.575 28.1557 31.6622C28.0782 31.7456 27.9794 31.7863 27.8612 31.7863C27.7313 31.7863 27.6286 31.7456 27.5511 31.6622C27.4774 31.5809 27.4426 31.4762 27.4426 31.3522V25.8715C27.4426 25.7475 27.4833 25.6448 27.5666 25.5615C27.6538 25.4743 27.7565 25.4297 27.8767 25.4297H29.9852ZM29.9852 28.515C30.1499 28.515 30.303 28.4646 30.4426 28.3599C30.5821 28.2514 30.6906 28.1119 30.7681 27.9413C30.8495 27.7669 30.8922 27.577 30.8922 27.3754C30.8922 27.0653 30.8011 26.8057 30.6209 26.5925C30.4445 26.3754 30.2333 26.2669 29.9852 26.2669H28.2798V28.515H29.9852Z" fill="#232323"/>
<path d="M43.21 29.4066C43.21 29.8833 43.1034 30.3097 42.8922 30.6857C42.679 31.0577 42.3902 31.3504 42.024 31.5616C41.6557 31.7748 41.2526 31.8795 40.8147 31.8795C40.3689 31.8795 39.9639 31.7748 39.5976 31.5616C39.2352 31.3504 38.9484 31.0577 38.7371 30.6857C38.524 30.3097 38.4193 29.8833 38.4193 29.4066C38.4193 28.9376 38.524 28.5112 38.7371 28.1275C38.9484 27.7457 39.2352 27.4492 39.5976 27.236C39.9639 27.0248 40.3689 26.9182 40.8147 26.9182C41.2526 26.9182 41.6557 27.0248 42.024 27.236C42.3902 27.4492 42.679 27.7457 42.8922 28.1275C43.1034 28.5112 43.21 28.9376 43.21 29.4066ZM42.3495 29.4066C42.3495 29.081 42.2798 28.7903 42.1402 28.5306C42.0046 28.2729 41.8224 28.0733 41.5899 27.9337C41.3573 27.7903 41.0976 27.7167 40.8147 27.7167C40.5298 27.7167 40.272 27.7903 40.0395 27.9337C39.8069 28.0733 39.6209 28.2729 39.4813 28.5306C39.3457 28.7903 39.2798 29.081 39.2798 29.4066C39.2798 29.7283 39.3457 30.0171 39.4813 30.2748C39.6209 30.5287 39.8069 30.7283 40.0395 30.8717C40.272 31.0112 40.5298 31.081 40.8147 31.081C41.0976 31.081 41.3573 31.0112 41.5899 30.8717C41.8224 30.7283 42.0046 30.5287 42.1402 30.2748C42.2798 30.0171 42.3495 29.7283 42.3495 29.4066Z" fill="#FF7A00"/>
<path d="M52.5026 26.9182C52.6577 26.9182 52.7914 26.9608 52.9057 27.0422C53.024 27.1256 53.084 27.2264 53.084 27.3446C53.084 27.4899 53.0453 27.6004 52.9678 27.6779C52.8902 27.7554 52.7972 27.7942 52.6887 27.7942C52.6364 27.7942 52.5569 27.7767 52.4484 27.7399C52.3185 27.6992 52.2178 27.6779 52.1461 27.6779C51.96 27.6779 51.7759 27.7438 51.5957 27.8717C51.4193 28.0015 51.274 28.1798 51.1616 28.4066C51.0472 28.6353 50.991 28.8872 50.991 29.1663V31.3523C50.991 31.4725 50.9484 31.5752 50.867 31.6624C50.7895 31.7457 50.6848 31.7864 50.5569 31.7864C50.4329 31.7864 50.3282 31.7457 50.2468 31.6624C50.1693 31.581 50.1306 31.4764 50.1306 31.3523V27.4686C50.1306 27.3446 50.1713 27.2419 50.2546 27.1585C50.336 27.0713 50.4368 27.0267 50.5569 27.0267C50.6848 27.0267 50.7895 27.0713 50.867 27.1585C50.9484 27.2419 50.991 27.3446 50.991 27.4686V27.926C51.1247 27.6314 51.3244 27.395 51.5879 27.2128C51.8554 27.0267 52.1616 26.9298 52.5026 26.9182Z" fill="#232323"/>
<path d="M61.0874 27.8717V30.5771C61.0874 30.8833 61.223 31.0345 61.4982 31.0345C61.5389 31.0345 61.5951 31.0248 61.6688 31.0035C61.7405 30.9841 61.8006 30.9725 61.8471 30.9725C61.9246 30.9725 61.9886 31.0074 62.0409 31.0733C62.0971 31.1353 62.1261 31.2186 62.1261 31.3213C62.1261 31.4512 62.0525 31.5616 61.9091 31.6546C61.7637 31.7438 61.601 31.7864 61.4207 31.7864C61.2192 31.7864 61.0351 31.7671 60.8703 31.7244C60.7037 31.6837 60.5544 31.5771 60.4207 31.4066C60.2909 31.2322 60.2269 30.9686 60.2269 30.6159V27.8717H59.6998C59.5855 27.8717 59.4905 27.8368 59.413 27.7632C59.3393 27.6857 59.3044 27.5907 59.3044 27.4764C59.3044 27.364 59.3393 27.2709 59.413 27.1973C59.4905 27.1198 59.5855 27.081 59.6998 27.081H60.2269V26.3213C60.2269 26.2031 60.2676 26.1023 60.351 26.019C60.4324 25.9318 60.537 25.8872 60.661 25.8872C60.7851 25.8872 60.8858 25.9318 60.9634 26.019C61.0448 26.1023 61.0874 26.2031 61.0874 26.3213V27.081H61.8471C61.9595 27.081 62.0525 27.1198 62.1261 27.1973C62.2037 27.2748 62.2424 27.3717 62.2424 27.4841C62.2424 27.5984 62.2037 27.6915 62.1261 27.7632C62.0525 27.8368 61.9595 27.8717 61.8471 27.8717H61.0874Z" fill="#232323"/>
</svg>
