<svg width="240" height="86" viewBox="0 0 240 86" fill="none" xmlns="http://www.w3.org/2000/svg">
<path d="M-0.423706 0.658081H20.118C25.8523 0.658081 30.493 2.13725 34.0346 5.09558C37.5867 8.05391 39.368 12.3612 39.368 18.0122C39.368 23.6529 37.5659 28.0747 33.9721 31.2831C30.3732 34.4914 25.7534 36.0956 20.118 36.0956H12.4096V56.9914H-0.423706V0.658081ZM12.4096 25.8664H16.0138C18.8888 25.8664 21.243 25.2935 23.0763 24.1372C24.92 22.9706 25.8471 21.0643 25.8471 18.4081C25.8471 15.731 24.92 13.8143 23.0763 12.6581C21.243 11.4914 18.8888 10.9081 16.0138 10.9081H12.4096V25.8664Z" fill="#232323"/>
<path d="M40.9981 52.658C37.7169 49.0903 36.0815 44.7153 36.0815 39.533C36.0815 34.3403 37.7169 29.9445 40.9981 26.3455C44.2742 22.7518 48.4409 20.9497 53.4981 20.9497C58.1336 20.9497 61.9617 22.4028 64.9773 25.3039V21.9705H77.0606V56.9914H65.1023V53.033H64.9773C61.9617 56.356 58.1336 58.0122 53.4981 58.0122C48.4409 58.0122 44.2742 56.231 40.9981 52.658ZM51.269 33.5747C49.6961 35.1164 48.9148 37.0955 48.9148 39.5122C48.9148 41.9289 49.6648 43.9028 51.1648 45.4289C52.6752 46.9445 54.6648 47.6997 57.1231 47.6997C59.4825 47.6997 61.4252 46.9289 62.9565 45.3872C64.4825 43.8351 65.2481 41.8768 65.2481 39.5122C65.2481 37.0955 64.4617 35.1164 62.894 33.5747C61.3211 32.033 59.3992 31.2622 57.1231 31.2622C54.8002 31.2622 52.8523 32.033 51.269 33.5747Z" fill="white"/>
<path d="M94.0502 20.9497C96.0606 20.9497 98.0398 21.1789 99.9877 21.6372C101.946 22.0851 103.404 22.533 104.363 22.9914L105.8 23.6789L101.842 31.5955C99.1023 30.1372 96.5086 29.408 94.0502 29.408C92.6856 29.408 91.7221 29.5643 91.1544 29.8664C90.5815 30.158 90.3002 30.7153 90.3002 31.533C90.3002 31.7153 90.3211 31.8976 90.3627 32.0747C90.4148 32.257 90.5086 32.4289 90.6336 32.5955C90.769 32.7518 90.894 32.882 91.0086 32.9914C91.1336 33.106 91.3263 33.231 91.5919 33.3664C91.8679 33.507 92.0815 33.6112 92.2377 33.6789C92.4044 33.7518 92.6648 33.856 93.0294 33.9914C93.3888 34.1164 93.6596 34.2153 93.8419 34.283C94.0346 34.356 94.3471 34.4601 94.7794 34.5955C95.2065 34.7362 95.5346 34.8247 95.7586 34.8664C97.1752 35.283 98.4044 35.7414 99.4461 36.2414C100.498 36.7414 101.602 37.4237 102.759 38.283C103.925 39.1476 104.826 40.2362 105.467 41.5539C106.102 42.8768 106.425 44.382 106.425 46.0747C106.425 54.033 100.889 58.0122 89.8211 58.0122C87.3211 58.0122 84.9461 57.6268 82.6961 56.8664C80.4461 56.0903 78.8106 55.3143 77.8002 54.533L76.3002 53.3039L81.2169 45.0539C81.5919 45.3612 82.0711 45.7362 82.6544 46.1789C83.2481 46.6112 84.3211 47.1997 85.8627 47.9497C87.4148 48.6997 88.7586 49.0747 89.8836 49.0747C92.394 49.0747 93.6544 48.2362 93.6544 46.5539C93.6544 45.7778 93.3315 45.1737 92.6961 44.7414C92.0554 44.3143 90.9721 43.8247 89.4461 43.283C87.9148 42.731 86.7221 42.2205 85.8627 41.7622C83.6804 40.6268 81.9513 39.3403 80.6752 37.908C79.394 36.481 78.7586 34.5747 78.7586 32.1997C78.7586 28.658 80.1336 25.9028 82.8836 23.9289C85.644 21.9445 89.3679 20.9497 94.0502 20.9497Z" fill="#232323"/>
<path d="M121.218 20.9497C123.228 20.9497 125.208 21.1789 127.156 21.6372C129.114 22.0851 130.572 22.533 131.531 22.9914L132.968 23.6789L129.01 31.5955C126.27 30.1372 123.676 29.408 121.218 29.408C119.853 29.408 118.89 29.5643 118.322 29.8664C117.749 30.158 117.468 30.7153 117.468 31.533C117.468 31.7153 117.489 31.8976 117.531 32.0747C117.583 32.257 117.676 32.4289 117.801 32.5955C117.937 32.7518 118.062 32.882 118.176 32.9914C118.301 33.106 118.494 33.231 118.76 33.3664C119.036 33.507 119.249 33.6112 119.406 33.6789C119.572 33.7518 119.833 33.856 120.197 33.9914C120.557 34.1164 120.827 34.2153 121.01 34.283C121.202 34.356 121.515 34.4601 121.947 34.5955C122.374 34.7362 122.702 34.8247 122.926 34.8664C124.343 35.283 125.572 35.7414 126.614 36.2414C127.666 36.7414 128.77 37.4237 129.926 38.283C131.093 39.1476 131.994 40.2362 132.635 41.5539C133.27 42.8768 133.593 44.382 133.593 46.0747C133.593 54.033 128.057 58.0122 116.989 58.0122C114.489 58.0122 112.114 57.6268 109.864 56.8664C107.614 56.0903 105.978 55.3143 104.968 54.533L103.468 53.3039L108.385 45.0539C108.76 45.3612 109.239 45.7362 109.822 46.1789C110.416 46.6112 111.489 47.1997 113.031 47.9497C114.583 48.6997 115.926 49.0747 117.051 49.0747C119.562 49.0747 120.822 48.2362 120.822 46.5539C120.822 45.7778 120.499 45.1737 119.864 44.7414C119.223 44.3143 118.14 43.8247 116.614 43.283C115.083 42.731 113.89 42.2205 113.031 41.7622C110.848 40.6268 109.119 39.3403 107.843 37.908C106.562 36.481 105.926 34.5747 105.926 32.1997C105.926 28.658 107.301 25.9028 110.051 23.9289C112.812 21.9445 116.536 20.9497 121.218 20.9497Z" fill="#232323"/>
<path d="M134.323 2.44971C135.74 1.03304 137.428 0.324707 139.386 0.324707C141.344 0.324707 143.021 1.03304 144.428 2.44971C145.844 3.85596 146.553 5.53304 146.553 7.49137C146.553 9.44971 145.844 11.1372 144.428 12.5539C143.021 13.9601 141.344 14.658 139.386 14.658C137.428 14.658 135.74 13.9601 134.323 12.5539C132.917 11.1372 132.219 9.44971 132.219 7.49137C132.219 5.53304 132.917 3.85596 134.323 2.44971ZM133.178 21.9705V56.9914H145.261V21.9705H133.178Z" fill="#232323"/>
<path d="M150.667 52.8247C146.776 49.3664 144.833 44.9289 144.833 39.5122C144.833 34.0955 146.859 29.6528 150.917 26.1789C154.969 22.6945 159.979 20.9497 165.938 20.9497C171.813 20.9497 176.76 22.6997 180.792 26.1997C184.818 29.6997 186.833 34.1372 186.833 39.5122C186.833 44.8872 184.859 49.3195 180.917 52.8039C176.984 56.2778 171.99 58.0122 165.938 58.0122C159.656 58.0122 154.568 56.283 150.667 52.8247ZM160.021 33.5747C158.448 35.1164 157.667 37.0955 157.667 39.5122C157.667 41.9289 158.417 43.9028 159.917 45.4289C161.427 46.9445 163.417 47.6997 165.875 47.6997C168.234 47.6997 170.177 46.9289 171.708 45.3872C173.234 43.8351 174 41.8768 174 39.5122C174 37.0955 173.214 35.1164 171.646 33.5747C170.073 32.033 168.151 31.2622 165.875 31.2622C163.552 31.2622 161.604 32.033 160.021 33.5747Z" fill="#232323"/>
<path d="M186.08 56.9914V21.9705H198.163V25.658H198.288C201.424 22.5226 204.773 20.9497 208.33 20.9497C210.049 20.9497 211.767 21.1789 213.476 21.6372C215.184 22.0851 216.819 22.783 218.392 23.7414C219.96 24.6997 221.231 26.0539 222.205 27.8039C223.189 29.5539 223.684 31.5903 223.684 33.908V56.9914H211.601V37.1997C211.601 35.382 211.017 33.7935 209.851 32.4289C208.694 31.0539 207.189 30.3664 205.33 30.3664C203.507 30.3664 201.856 31.0747 200.372 32.4914C198.898 33.8976 198.163 35.4653 198.163 37.1997V56.9914H186.08Z" fill="#232323"/>
<path d="M232.566 42.3872C234.743 42.3872 236.597 43.1528 238.128 44.6789C239.654 46.1945 240.42 48.0487 240.42 50.2414C240.42 52.382 239.654 54.2153 238.128 55.7414C236.597 57.2518 234.743 58.0122 232.566 58.0122C230.425 58.0122 228.592 57.2518 227.066 55.7414C225.55 54.2153 224.795 52.382 224.795 50.2414C224.795 48.0487 225.55 46.1945 227.066 44.6789C228.592 43.1528 230.425 42.3872 232.566 42.3872Z" fill="white"/>
<path d="M80.5852 68.3425C81.4445 68.3425 82.2414 68.5821 82.981 69.0509C83.7154 69.5092 84.2987 70.1446 84.731 70.9467C85.1581 71.7384 85.3768 72.6134 85.3768 73.5717C85.3768 74.53 85.1581 75.4207 84.731 76.2384C84.2987 77.0457 83.7154 77.6863 82.981 78.155C82.2414 78.629 81.4445 78.8634 80.5852 78.8634H76.0018V84.2592C76.0018 84.5821 75.8872 84.8582 75.6685 85.0925C75.4602 85.3165 75.1945 85.4259 74.8768 85.4259C74.5279 85.4259 74.2518 85.3165 74.0435 85.0925C73.8456 84.8738 73.7518 84.5925 73.7518 84.2592V69.53C73.7518 69.1967 73.8612 68.9207 74.0852 68.6967C74.3195 68.4623 74.5956 68.3425 74.9185 68.3425H80.5852ZM80.5852 76.6342C81.0279 76.6342 81.4393 76.4988 81.8143 76.2175C82.1893 75.9259 82.481 75.5509 82.6893 75.0925C82.9081 74.6238 83.0227 74.1134 83.0227 73.5717C83.0227 72.7384 82.7779 72.0404 82.2935 71.4675C81.8195 70.8842 81.2518 70.5925 80.5852 70.5925H76.0018V76.6342H80.5852Z" fill="#232323"/>
<path d="M116.127 79.03C116.127 80.3113 115.84 81.4571 115.273 82.4675C114.7 83.4675 113.924 84.254 112.939 84.8217C111.95 85.3946 110.866 85.6759 109.689 85.6759C108.491 85.6759 107.403 85.3946 106.418 84.8217C105.445 84.254 104.674 83.4675 104.106 82.4675C103.533 81.4571 103.252 80.3113 103.252 79.03C103.252 77.7696 103.533 76.6238 104.106 75.5925C104.674 74.5665 105.445 73.7696 106.418 73.1967C107.403 72.629 108.491 72.3425 109.689 72.3425C110.866 72.3425 111.95 72.629 112.939 73.1967C113.924 73.7696 114.7 74.5665 115.273 75.5925C115.84 76.6238 116.127 77.7696 116.127 79.03ZM113.814 79.03C113.814 78.155 113.627 77.3738 113.252 76.6759C112.887 75.9832 112.398 75.4467 111.773 75.0717C111.148 74.6863 110.45 74.4884 109.689 74.4884C108.924 74.4884 108.231 74.6863 107.606 75.0717C106.981 75.4467 106.481 75.9832 106.106 76.6759C105.741 77.3738 105.564 78.155 105.564 79.03C105.564 79.8946 105.741 80.6707 106.106 81.3634C106.481 82.0457 106.981 82.5821 107.606 82.9675C108.231 83.3425 108.924 83.53 109.689 83.53C110.45 83.53 111.148 83.3425 111.773 82.9675C112.398 82.5821 112.887 82.0457 113.252 81.3634C113.627 80.6707 113.814 79.8946 113.814 79.03Z" fill="white"/>
<path d="M141.101 72.3425C141.517 72.3425 141.877 72.4571 142.184 72.6759C142.502 72.8998 142.663 73.1707 142.663 73.4884C142.663 73.879 142.559 74.1759 142.351 74.3842C142.142 74.5925 141.892 74.6967 141.601 74.6967C141.46 74.6967 141.247 74.6498 140.955 74.5509C140.606 74.4415 140.335 74.3842 140.142 74.3842C139.642 74.3842 139.148 74.5613 138.663 74.905C138.189 75.254 137.799 75.7332 137.497 76.3425C137.189 76.9571 137.038 77.6342 137.038 78.3842V84.2592C137.038 84.5821 136.924 84.8582 136.705 85.0925C136.497 85.3165 136.215 85.4259 135.872 85.4259C135.538 85.4259 135.257 85.3165 135.038 85.0925C134.83 84.8738 134.726 84.5925 134.726 84.2592V73.8217C134.726 73.4884 134.835 73.2123 135.059 72.9884C135.278 72.754 135.549 72.6342 135.872 72.6342C136.215 72.6342 136.497 72.754 136.705 72.9884C136.924 73.2123 137.038 73.4884 137.038 73.8217V75.0509C137.398 74.2592 137.934 73.6238 138.642 73.1342C139.361 72.6342 140.184 72.3738 141.101 72.3425Z" fill="#232323"/>
<path d="M164.173 74.9051V82.1759C164.173 82.9989 164.537 83.4051 165.277 83.4051C165.386 83.4051 165.537 83.3791 165.735 83.3218C165.928 83.2697 166.089 83.2384 166.214 83.2384C166.423 83.2384 166.594 83.3322 166.735 83.5093C166.886 83.6759 166.964 83.8999 166.964 84.1759C166.964 84.5249 166.766 84.8218 166.381 85.0718C165.99 85.3114 165.553 85.4259 165.068 85.4259C164.527 85.4259 164.032 85.3739 163.589 85.2593C163.141 85.1499 162.74 84.8634 162.381 84.4051C162.032 83.9364 161.86 83.228 161.86 82.2801V74.9051H160.443C160.136 74.9051 159.881 74.8114 159.673 74.6134C159.475 74.4051 159.381 74.1499 159.381 73.8426C159.381 73.5405 159.475 73.2905 159.673 73.0926C159.881 72.8843 160.136 72.7801 160.443 72.7801H161.86V70.7384C161.86 70.4207 161.969 70.1499 162.193 69.9259C162.412 69.6916 162.693 69.5718 163.027 69.5718C163.36 69.5718 163.631 69.6916 163.839 69.9259C164.058 70.1499 164.173 70.4207 164.173 70.7384V72.7801H166.214C166.516 72.7801 166.766 72.8843 166.964 73.0926C167.173 73.3009 167.277 73.5614 167.277 73.8634C167.277 74.1707 167.173 74.4207 166.964 74.6134C166.766 74.8114 166.516 74.9051 166.214 74.9051H164.173Z" fill="#232323"/>
</svg>
