<svg width="23" height="14" viewBox="0 0 23 14" fill="none" xmlns="http://www.w3.org/2000/svg">
<path d="M15.5771 0.0302734C19.322 0.0302734 22.3584 3.03016 22.3584 6.73047C22.3583 10.4307 19.322 13.4307 15.5771 13.4307C13.8982 13.4306 12.3629 12.8259 11.1787 11.8271C9.99451 12.8258 8.45913 13.4307 6.78027 13.4307C3.03566 13.4304 0.000106927 10.4305 0 6.73047C0 3.0303 3.03559 0.0304957 6.78027 0.0302734C8.45899 0.0302734 9.99455 0.634351 11.1787 1.63281C12.3629 0.634218 13.8983 0.0303008 15.5771 0.0302734Z" fill="#ED0006"/>
<path d="M15.5776 0.0302734C19.3224 0.0303547 22.3579 3.03021 22.3579 6.73047C22.3578 10.4306 19.3224 13.4306 15.5776 13.4307C13.8987 13.4307 12.3634 12.8258 11.1792 11.8271C12.6364 10.5983 13.562 8.77175 13.562 6.73047C13.562 4.68897 12.6366 2.86171 11.1792 1.63281C12.3634 0.634274 13.8988 0.0302734 15.5776 0.0302734Z" fill="#F9A000"/>
<path d="M11.1782 1.63281C12.6358 2.86171 13.561 4.68883 13.561 6.73047C13.561 8.77189 12.6356 10.5983 11.1782 11.8271C9.72126 10.5983 8.79645 8.77159 8.79639 6.73047C8.79639 4.68913 9.72105 2.86171 11.1782 1.63281Z" fill="#FF5E00"/>
</svg>
