<svg width="101" height="101" viewBox="0 0 101 101" fill="none" xmlns="http://www.w3.org/2000/svg">
<path d="M50.5 100.5C78.1142 100.5 100.5 78.1142 100.5 50.5C100.5 22.8858 78.1142 0.5 50.5 0.5C22.8858 0.5 0.5 22.8858 0.5 50.5C0.5 78.1142 22.8858 100.5 50.5 100.5Z" fill="#FF7A00"/>
<path d="M38.5 46.3337V42.167C38.5 35.2712 40.5833 29.667 51 29.667C61.4167 29.667 63.5 35.2712 63.5 42.167V46.3337" stroke="white" stroke-width="3.125" stroke-linecap="round" stroke-linejoin="round"/>
<path d="M61.4167 71.333H40.5834C32.2501 71.333 30.1667 69.2497 30.1667 60.9163V56.7497C30.1667 48.4163 32.2501 46.333 40.5834 46.333H61.4167C69.7501 46.333 71.8334 48.4163 71.8334 56.7497V60.9163C71.8334 69.2497 69.7501 71.333 61.4167 71.333Z" stroke="white" stroke-width="3.125" stroke-linecap="round" stroke-linejoin="round"/>
<path d="M59.3259 58.8337H59.3446" stroke="white" stroke-width="4.16667" stroke-linecap="round" stroke-linejoin="round"/>
<path d="M50.9907 58.8337H51.0094" stroke="white" stroke-width="4.16667" stroke-linecap="round" stroke-linejoin="round"/>
<path d="M42.6552 58.8337H42.6739" stroke="white" stroke-width="4.16667" stroke-linecap="round" stroke-linejoin="round"/>
</svg>
