<svg width="34" height="24" viewBox="0 0 34 24" fill="none" xmlns="http://www.w3.org/2000/svg">
<rect x="0.5" y="0.5" width="33" height="23" rx="3.5" fill="white"/>
<rect x="0.5" y="0.5" width="33" height="23" rx="3.5" stroke="#F5F5F5"/>
<path d="M21.8599 8.93945C23.064 8.93958 24.1997 10.0564 24.2065 12.1055C24.2065 14.3452 23.0846 15.3631 21.853 15.3633C21.2478 15.3633 20.883 15.1017 20.6353 14.918L20.6284 16.917L18.9077 17.292V9.05273H20.4214L20.5112 9.49121C20.7521 9.2651 21.1856 8.93945 21.8599 8.93945ZM7.18311 8.93945C7.75405 8.9395 8.31822 9.03156 8.88916 9.26465V10.9258C8.36635 10.6362 7.70599 10.4737 7.18311 10.4736C6.81855 10.4736 6.59831 10.5791 6.59814 10.8545C6.59814 11.6458 9.21884 11.2718 9.22607 13.377C9.22607 14.6418 8.24228 15.3701 6.81104 15.3701C6.21929 15.3701 5.57204 15.2494 4.93213 14.9668V13.2852C5.51011 13.6102 6.23992 13.8506 6.81104 13.8506C7.19631 13.8506 7.47111 13.7448 7.47119 13.4199C7.47119 12.5791 4.85693 12.8897 4.85693 10.9395C4.857 9.68885 5.78632 8.93945 7.18311 8.93945ZM11.2427 9.05957H12.5493V10.5654H11.2427V13.0732C11.2427 14.1186 12.3285 13.7942 12.5493 13.7021V15.1367C12.3222 15.2638 11.9092 15.3701 11.3452 15.3701C10.327 15.3699 9.56299 14.5994 9.56299 13.5537L9.56982 7.89453L11.2495 7.52637L11.2427 9.05957ZM27.144 8.93945C28.7747 8.93945 29.6283 10.367 29.6284 12.1758C29.6284 12.3452 29.6148 12.7123 29.6147 12.8047H26.2495C26.3252 13.6384 26.9171 13.8789 27.5845 13.8789C28.2657 13.8789 28.8031 13.7305 29.271 13.4902V14.9033C28.8031 15.1718 28.1835 15.3632 27.3647 15.3633C25.6858 15.3633 24.5162 14.2889 24.5161 12.1621C24.5161 10.3674 25.5065 8.93961 27.144 8.93945ZM14.6899 9.58301C15.0956 8.82053 15.8996 8.97473 16.1206 9.05957V10.6855C15.9069 10.6078 15.2197 10.509 14.814 11.0527V15.2432H13.0933V9.05957H14.5796L14.6899 9.58301ZM18.2681 15.2432H16.5405V9.05957H18.2681V15.2432ZM21.4468 10.5088C21.0548 10.5088 20.8073 10.6498 20.6284 10.8545L20.6353 13.4766C20.8004 13.6601 21.0411 13.8086 21.4468 13.8086C22.0798 13.8086 22.5062 13.102 22.5063 12.1553C22.5063 11.2296 22.0729 10.5088 21.4468 10.5088ZM27.1372 10.374C26.7038 10.3741 26.229 10.7065 26.229 11.5049H28.0044C28.0044 10.7064 27.5569 10.374 27.1372 10.374ZM18.2681 8.1416L16.5405 8.52344V7.08105L18.2681 6.70703V8.1416Z" fill="#6461FC"/>
</svg>
